<svg width="120" height="120" viewBox="0 0 120 120" xmlns="http://www.w3.org/2000/svg">
  <defs>
    <!-- Gradient for the shopping bag -->
    <linearGradient id="bagGradient" x1="0%" y1="0%" x2="100%" y2="100%">
      <stop offset="0%" style="stop-color:#3b82f6"/>
      <stop offset="100%" style="stop-color:#06b6d4"/>
    </linearGradient>
    
    <!-- Gradient for the hub circle -->
    <linearGradient id="hubGradient" x1="0%" y1="0%" x2="100%" y2="100%">
      <stop offset="0%" style="stop-color:#10b981"/>
      <stop offset="100%" style="stop-color:#059669"/>
    </linearGradient>
    
    <!-- Shadow filter -->
    <filter id="shadow" x="-20%" y="-20%" width="140%" height="140%">
      <feDropShadow dx="0" dy="2" stdDeviation="3" flood-color="rgba(0,0,0,0.2)"/>
    </filter>
  </defs>
  
  <!-- Background circle -->
  <circle cx="60" cy="60" r="58" fill="white" stroke="#e2e8f0" stroke-width="2" filter="url(#shadow)"/>
  
  <!-- Hub connection lines (representing network/connectivity) -->
  <g stroke="#e2e8f0" stroke-width="2" opacity="0.6">
    <line x1="30" y1="30" x2="45" y2="45"/>
    <line x1="90" y1="30" x2="75" y2="45"/>
    <line x1="30" y1="90" x2="45" y2="75"/>
    <line x1="90" y1="90" x2="75" y2="75"/>
  </g>
  
  <!-- Central hub circle -->
  <circle cx="60" cy="60" r="8" fill="url(#hubGradient)"/>
  
  <!-- Shopping bag icon -->
  <g transform="translate(60, 60)">
    <!-- Bag body -->
    <path d="M-12 -5 L-12 15 Q-12 18 -9 18 L9 18 Q12 18 12 15 L12 -5 Z" 
          fill="url(#bagGradient)" stroke="none"/>
    
    <!-- Bag handles -->
    <path d="M-8 -5 Q-8 -12 0 -12 Q8 -12 8 -5" 
          fill="none" stroke="url(#bagGradient)" stroke-width="2.5" stroke-linecap="round"/>
    
    <!-- Shopping bag highlight -->
    <rect x="-10" y="-3" width="4" height="12" fill="rgba(255,255,255,0.2)" rx="1"/>
  </g>
  
  <!-- Corner hub nodes -->
  <circle cx="30" cy="30" r="4" fill="url(#hubGradient)" opacity="0.8"/>
  <circle cx="90" cy="30" r="4" fill="url(#hubGradient)" opacity="0.8"/>
  <circle cx="30" cy="90" r="4" fill="url(#hubGradient)" opacity="0.8"/>
  <circle cx="90" cy="90" r="4" fill="url(#hubGradient)" opacity="0.8"/>
  
  <!-- Text label -->
  <text x="60" y="105" text-anchor="middle" font-family="Arial, sans-serif" font-size="10" font-weight="600" fill="#1e293b">ShopHub</text>
</svg>