<?xml version="1.0" encoding="iso-8859-1"?>
<!-- Uploaded to: SVG Repo, www.svgrepo.com, Generator: SVG Repo Mixer Tools -->
<svg version="1.1" id="Layer_1" xmlns="http://www.w3.org/2000/svg" xmlns:xlink="http://www.w3.org/1999/xlink" 
	 viewBox="0 0 448 448" xml:space="preserve">
<circle style="fill:#EE5656;" cx="104" cy="256" r="16"/>
<path style="fill:#E0CBB5;" d="M384,211.2V296H64v-84.8c6.4-3.2,12-8,16-13.6c8,11.2,20.8,19.2,36,19.2s28-7.2,36-19.2
	c8,11.2,20.8,19.2,36,19.2s28-7.2,36-19.2c8,11.2,20.8,19.2,36,19.2s28-7.2,36-19.2c8,11.2,20.8,19.2,36,19.2s28-7.2,36-19.2
	C372,203.2,377.6,208,384,211.2z M328,264v-16h-40v16H328z M264,264v-16H160v16H264z M136,256c0-17.6-14.4-32-32-32s-32,14.4-32,32
	s14.4,32,32,32S136,273.6,136,256z"/>
<path style="fill:#FFF8EF;" d="M368,204.8c-8,11.2-20.8,19.2-36,19.2s-28-7.2-36-19.2c-8,11.2-20.8,19.2-36,19.2s-28-7.2-36-19.2
	c-8,11.2-20.8,19.2-36,19.2s-28-7.2-36-19.2c-8,11.2-20.8,19.2-36,19.2s-28-7.2-36-19.2c-4,5.6-9.6,10.4-16,13.6V296h320v-76.8
	C377.6,216,372,211.2,368,204.8z M104,288c-17.6,0-32-14.4-32-32s14.4-32,32-32s32,14.4,32,32S121.6,288,104,288z M264,264H160v-16
	h104V264z M328,264h-40v-16h40V264z"/>
<path style="fill:#CC9966;" d="M272.8,396l18.4,36H156.8l16-32H216v-16h-40v-48h96v56C272,393.6,272,394.4,272.8,396z M256,400v-16
	h-24v16H256z"/>
<path style="fill:#E4C6A1;" d="M408,216v104H280H168H40V216c1.6,0,2.4,0,4,0s2.4,0,4,0v88c0,4,3.2,8,8,8h336c4,0,8-4,8-8v-88
	c1.6,0,2.4,0,4,0S406.4,216,408,216z"/>
<path style="fill:#42210B;" d="M448,32v140c0,16.8-9.6,32-24,39.2V328c0,4-4,8-8,8H288v54.4l20.8,41.6H360v16h-56H144H64v-16h75.2
	l20.8-41.6V336H32c-4.8,0-8-4-8-8V211.2C9.6,204,0,188.8,0,172V32V8c0-4.8,3.2-8,8-8h432c4,0,8,3.2,8,8V32z M432,172V40h-56v132
	c0,15.2,12.8,28,28,28S432,187.2,432,172z M432,24v-8H16v8h64h72h72h72h72H432z M408,320V216c-1.6,0-2.4,0-4,0s-2.4,0-4,0v88
	c0,4-4,8-8,8H56c-4.8,0-8-4-8-8v-88c-1.6,0-2.4,0-4,0s-2.4,0-4,0v104h128h112H408z M384,296v-84.8c-6.4-3.2-12-8-16-13.6
	c-8,11.2-20.8,19.2-36,19.2s-28-8-36-20c-8,11.2-20.8,19.2-36,19.2s-28-7.2-36-19.2c-8,11.2-20.8,19.2-36,19.2s-28-7.2-36-19.2
	c-8,11.2-20.8,19.2-36,19.2s-28-7.2-36-19.2c-4,5.6-9.6,10.4-16,13.6V296H384z M360,172V40h-56v132c0,15.2,12.8,28,28,28
	S360,187.2,360,172z M291.2,432l-18.4-36c-0.8-1.6-0.8-2.4-0.8-4v-56h-96v48h40v16h-43.2l-16,32H291.2z M288,172V40h-56v132
	c0,15.2,12.8,28,28,28S288,187.2,288,172z M216,172V40h-56v132c0,15.2,12.8,28,28,28S216,187.2,216,172z M144,172V40H88v132
	c0,15.2,12.8,28,28,28S144,187.2,144,172z M72,172V40H16v132c0,15.2,12.8,28,28,28S72,187.2,72,172z"/>
<path style="fill:#2FB4C2;" d="M432,40v132c0,15.2-12.8,28-28,28s-28-12.8-28-28V40H432z"/>
<polygon style="fill:#FF7D00;" points="432,16 432,24 368,24 296,24 224,24 152,24 80,24 16,24 16,16 "/>
<rect x="376" y="432" style="fill:#42210B;" width="24" height="16"/>
<path style="fill:#FF9900;" d="M360,40v132c0,15.2-12.8,28-28,28s-28-12.8-28-28V40H360z"/>
<rect x="288" y="248" style="fill:#42210B;" width="40" height="16"/>
<path style="fill:#2FB4C2;" d="M288,40v132c0,15.2-12.8,28-28,28s-28-12.8-28-28V40H288z"/>
<g>
	<rect x="160" y="248" style="fill:#42210B;" width="104" height="16"/>
	<rect x="232" y="384" style="fill:#42210B;" width="24" height="16"/>
</g>
<path style="fill:#FF9900;" d="M216,40v132c0,15.2-12.8,28-28,28s-28-12.8-28-28V40H216z"/>
<path style="fill:#2FB4C2;" d="M144,40v132c0,15.2-12.8,28-28,28s-28-12.8-28-28V40H144z"/>
<path style="fill:#42210B;" d="M104,224c17.6,0,32,14.4,32,32s-14.4,32-32,32s-32-14.4-32-32S86.4,224,104,224z M120,256
	c0-8.8-7.2-16-16-16s-16,7.2-16,16s7.2,16,16,16S120,264.8,120,256z"/>
<path style="fill:#FF9900;" d="M72,40v132c0,15.2-12.8,28-28,28s-28-12.8-28-28V40H72z"/>
<path style="fill:#1D9AAE;" d="M404,176c-15.2,0-28-12.8-28-28v24c0,15.2,12.8,28,28,28s28-12.8,28-28v-24
	C432,163.2,419.2,176,404,176z"/>
<path style="fill:#FF7D00;" d="M332,176c-15.2,0-28-12.8-28-28v24c0,15.2,12.8,28,28,28s28-12.8,28-28v-24
	C360,163.2,347.2,176,332,176z"/>
<path style="fill:#1D9AAE;" d="M260,176c-15.2,0-28-12.8-28-28v24c0,15.2,12.8,28,28,28s28-12.8,28-28v-24
	C288,163.2,275.2,176,260,176z"/>
<path style="fill:#FF7D00;" d="M188,176c-15.2,0-28-12.8-28-28v24c0,15.2,12.8,28,28,28s28-12.8,28-28v-24
	C216,163.2,203.2,176,188,176z"/>
<path style="fill:#1D9AAE;" d="M116,176c-15.2,0-28-12.8-28-28v24c0,15.2,12.8,28,28,28s28-12.8,28-28v-24
	C144,163.2,131.2,176,116,176z"/>
<path style="fill:#FF7D00;" d="M44,176c-15.2,0-28-12.8-28-28v24c0,15.2,12.8,28,28,28s28-12.8,28-28v-24C72,163.2,59.2,176,44,176z
	"/>
<path style="fill:#B37D4D;" d="M272,336l-65.6,5.6c-13.6,1.6-24,11.2-27.2,24L176,384v-48H272z"/>
</svg>